<svg width="20" height="20" viewBox="0 0 20 20" fill="none" xmlns="http://www.w3.org/2000/svg">
<g id="Line / Plus">
<path id="Vector" d="M9.53983 16.4761C9.66192 16.5982 9.82752 16.6668 10.0002 16.6668C10.1728 16.6668 10.3384 16.5982 10.4605 16.4761C10.5826 16.354 10.6512 16.1885 10.6512 16.0158V10.6517H16.0153C16.188 10.6517 16.3536 10.5831 16.4757 10.4611C16.5977 10.339 16.6663 10.1734 16.6663 10.0007C16.6663 9.82803 16.5977 9.66243 16.4757 9.54034C16.3536 9.41825 16.188 9.34966 16.0153 9.34966H10.6512V3.98454C10.6512 3.81187 10.5826 3.64628 10.4605 3.52418C10.3384 3.40209 10.1728 3.3335 10.0002 3.3335C9.82752 3.3335 9.66192 3.40209 9.53983 3.52418C9.41773 3.64628 9.34914 3.81187 9.34914 3.98454V9.34966H3.98405C3.81138 9.34966 3.64579 9.41825 3.52369 9.54034C3.4016 9.66243 3.33301 9.82803 3.33301 10.0007C3.33301 10.1734 3.4016 10.339 3.52369 10.4611C3.64579 10.5831 3.81138 10.6517 3.98405 10.6517H9.34914V16.0158C9.34914 16.1885 9.41773 16.354 9.53983 16.4761Z" fill="white"/>
</g>
</svg>
